<svg width="1726" height="545" viewBox="0 0 1726 545" fill="none" xmlns="http://www.w3.org/2000/svg">
<path d="M66.7173 77.7584C69.7008 74.093 99.9095 33.1796 83.0264 42.5097C76.7589 45.9734 61.2904 54.9459 59.615 62.7646C59.1338 65.01 81.7374 54.8143 83.2895 54.0839" stroke="#0000FF" stroke-width="3" stroke-linecap="round"/>
<path d="M111.699 46.9815C109.999 49.2697 96.7671 63.883 99.0726 67.2364C102.375 72.0393 134.995 46.243 138.135 44.088C152.381 34.3115 148.227 43.4753 143.528 54.2154C139.273 63.9408 130.738 73.8459 142.476 77.7584" stroke="#0000FF" stroke-width="3" stroke-linecap="round"/>
<path d="M275.053 44.6141C264.722 28.3231 260.689 31.7474 246.512 43.5619C243.574 46.0107 218.593 62.2757 230.861 64.0798C247.828 66.5749 261.011 65.1216 275.974 56.3198C279.859 54.0341 300.595 42.2266 296.097 34.3551C295.725 33.7039 237.026 87.2895 285.444 57.7666C288.594 55.8453 303.619 43.7384 300.043 55.1361C299.027 58.3732 290.579 73.721 298.728 68.2886" stroke="#0000FF" stroke-width="3" stroke-linecap="round"/>
<path d="M327.137 54.0839C321.408 59.9456 303.898 75.9116 311.617 73.155C320.504 69.981 328.582 60.1403 336.08 54.61C361.157 36.116 345.612 71.818 341.341 82.4933" stroke="#0000FF" stroke-width="3" stroke-linecap="round"/>
<path d="M466.816 39.8792C464.417 44.8195 448.226 70.8217 451.823 76.7062C453.69 79.7623 489.116 52.019 492.332 49.8751C511.964 36.7872 500.826 52.2127 493.121 61.8439C487.934 68.3282 475.252 77.7584 488.123 77.7584" stroke="#0000FF" stroke-width="3" stroke-linecap="round"/>
<path d="M547.31 23.3071C536.947 28.7612 518.812 36.5231 516.007 49.349C513.719 59.8064 529.542 66.6279 515.086 72.7605C510.837 74.5631 494.591 74.0818 505.353 71.8398C520.123 68.7628 535.866 68.771 550.861 67.1049C563.017 65.7542 573.938 64.776 582.822 55.3992C586.446 51.5732 601.843 21.2022 592.554 30.1464C587.457 35.0553 553.893 64.6105 565.46 72.4974C579.662 82.1805 599.738 68.8483 611.231 61.1863" stroke="#0000FF" stroke-width="3" stroke-linecap="round"/>
<path d="M739.073 2C724.68 23.0877 717.763 49.3522 701.194 68.2886" stroke="#0000FF" stroke-width="3" stroke-linecap="round"/>
<path d="M686.989 58.8188C710.72 38.15 744.831 29.4833 770.902 11.2068C777.56 6.53918 781.087 3.59264 774.059 12.1274C764.315 23.9596 754.752 35.6933 744.071 46.7185C721.13 70.3992 752.282 51.7426 764.063 48.0337C778.492 43.4911 766.759 72.1678 765.641 77.7584C763.184 90.0458 787.185 71.7037 789.316 70.1299C794.204 66.5199 833.655 40.6982 830.878 35.1443C824.731 22.8512 798.697 63.9324 796.944 68.2886C785.572 96.556 831.817 77.0991 840.873 73.0235" stroke="#0000FF" stroke-width="3" stroke-linecap="round"/>
<path d="M949.776 28.0419C945.513 36.5686 941.66 45.5076 936.098 53.2947C934.82 55.0837 943.592 46.468 945.568 45.1402C962.254 33.9248 964.153 53.5915 956.09 64.3428C948.516 74.4413 977.786 36.2975 987.919 43.8249C994.971 49.0636 980.232 70.656 982.921 70.656" stroke="#0000FF" stroke-width="3" stroke-linecap="round"/>
<path d="M1013.7 70.6561C1017.78 66.9443 1050.85 31.0246 1026.06 46.587C1021.71 49.3187 992.578 68.2886 1008.96 68.2886" stroke="#0000FF" stroke-width="3" stroke-linecap="round"/>
<path d="M1056.31 46.9816C1033.96 81.8994 1067.85 54.0592 1081.7 45.4033C1082.43 44.9459 1071.23 72.1953 1077.62 75.391" stroke="#0000FF" stroke-width="3" stroke-linecap="round"/>
<path d="M1132.07 25.6745C1122.79 27.6203 1099.56 32.8149 1102.35 46.9815C1103.88 54.7821 1110.6 60.2227 1106.82 68.8147C1100.77 82.5465 1078.7 76.0314 1094.19 68.2886" stroke="#0000FF" stroke-width="3" stroke-linecap="round"/>
<path d="M1124.97 65.9212C1143.85 58.5941 1160.98 49.2484 1176.13 35.5389C1198.44 15.3502 1166.86 32.7032 1158.64 40.0107C1149.56 48.0776 1133.05 69.424 1154.43 74.3388C1168.74 77.6292 1183.42 72.2073 1195.99 65.9212" stroke="#0000FF" stroke-width="3" stroke-linecap="round"/>
<path d="M272.686 203.233C260.917 226.183 249.672 248.252 239.542 271.889" stroke="#0000FF" stroke-width="3" stroke-linecap="round"/>
<path d="M222.969 255.317C237.187 246.786 257.241 238.745 274.001 238.745C288.776 238.745 276.133 262.014 275.448 268.864C274.769 275.647 297.388 254.377 299.254 248.609C303.892 234.274 281.695 239.205 277.421 243.48" stroke="#0000FF" stroke-width="3" stroke-linecap="round"/>
<path d="M369.751 231.643C368.57 234.94 356.679 259.595 365.542 261.893C377.152 264.903 384.129 245.301 392.374 241.375C393.998 240.602 392.442 256.404 393.952 257.158C398.638 259.501 412.101 237.519 414.733 234.01" stroke="#0000FF" stroke-width="3" stroke-linecap="round"/>
<path d="M436.039 243.48C434.264 246.604 425.187 267.777 427.622 264.261C434.599 254.183 443.128 246.331 452.612 238.745" stroke="#0000FF" stroke-width="3" stroke-linecap="round"/>
<path d="M469.184 241.112C466.91 251.116 457.347 279.781 457.347 269.522" stroke="#0000FF" stroke-width="3" stroke-linecap="round"/>
<path d="M464.449 217.438L476.286 203.233" stroke="#0000FF" stroke-width="3" stroke-linecap="round"/>
<path d="M528.37 207.968C511.488 227.101 500.484 245.523 488.124 267.154" stroke="#0000FF" stroke-width="3" stroke-linecap="round"/>
<path d="M476.286 252.95C491.327 252.759 506.034 251.967 520.873 249.398C524.627 248.749 535.87 244.321 539.681 246.373C547.969 250.836 559.213 244.129 564.934 237.035C565.82 235.936 575.407 217.472 569.932 219.016C558.511 222.238 545.983 239.923 538.892 248.609C518.782 273.245 550.982 268.379 566.249 264.787" stroke="#0000FF" stroke-width="3" stroke-linecap="round"/>
<path d="M663.315 250.582C678.106 265.883 697.002 241.467 689.62 238.219C682.646 235.15 656.539 245.766 665.682 243.48" stroke="#0000FF" stroke-width="3" stroke-linecap="round"/>
<path d="M710.664 231.643C706.666 238.971 686.891 277.367 704.614 252.424C715.518 237.077 728.699 231.901 746.176 226.908" stroke="#0000FF" stroke-width="3" stroke-linecap="round"/>
<path d="M840.873 245.847C834.927 219.898 812.902 241.465 800.232 252.424C796.26 255.859 790.694 261.122 799.838 259.526C815.806 256.738 828.22 245.44 839.69 234.799C851.39 223.945 863.088 212.579 872.045 199.287C875.15 194.68 881.482 185.011 873.229 195.605C862.689 209.133 841.937 232.224 845.608 250.582" stroke="#0000FF" stroke-width="3" stroke-linecap="round"/>
<path d="M878.752 231.643C873.384 236.244 857.567 248.97 860.207 258.211C860.819 260.352 864.009 255.824 865.6 254.265C870.873 249.096 875.821 243.186 882.172 239.271C894.245 231.829 909.757 230.87 923.339 228.091C935.387 225.627 939.682 221.795 928.074 232.037C923.147 236.385 918.161 240.712 913.475 245.321C913.43 245.366 906.462 252.95 906.899 252.95C919.506 252.95 930.978 240.974 940.832 234.668C949.396 229.187 935.098 252.017 933.73 254.265C925.938 267.066 934.164 264.837 945.041 262.419" stroke="#0000FF" stroke-width="3" stroke-linecap="round"/>
<path d="M968.716 236.378C941.582 270.912 974.383 241.561 977.66 253.476C982.816 272.226 1012.98 253.88 1006.6 241.112" stroke="#0000FF" stroke-width="3" stroke-linecap="round"/>
<path d="M1091.82 252.95C1103.28 253.434 1114.23 253.121 1123.65 245.584C1130.22 240.332 1120.06 239.758 1116.81 239.797C1113.38 239.838 1090.42 244.448 1094.19 248.215" stroke="#0000FF" stroke-width="3" stroke-linecap="round"/>
<path d="M1139.17 245.847C1137.79 247.231 1125.15 260.084 1127.33 259.394C1142.48 254.613 1154.08 242.721 1168.24 236.114C1189.7 226.098 1176.34 258.877 1174.68 267.154" stroke="#0000FF" stroke-width="3" stroke-linecap="round"/>
<path d="M1267.01 207.968C1251.06 227.394 1238.7 246.287 1229.14 269.522" stroke="#0000FF" stroke-width="3" stroke-linecap="round"/>
<path d="M1214.93 252.95C1234.29 235.593 1260.39 222.286 1285.43 215.07C1302.18 210.243 1276.4 243.475 1272.8 249.004C1265.32 260.513 1268.64 260.873 1280.56 256.369C1297.63 249.92 1302.53 251.899 1302.53 269.127C1302.53 280.655 1322.86 264.675 1325.67 261.893C1328.88 258.725 1348.82 227.897 1338.43 233.879C1329.79 238.854 1308.78 257.064 1316.99 268.996C1325.3 281.057 1343.64 275.545 1354.61 271.889" stroke="#0000FF" stroke-width="3" stroke-linecap="round"/>
<path d="M1465.88 238.745C1440.64 227.364 1438.61 243.764 1434.84 264.524C1432.9 275.204 1400.99 280.449 1411.43 264.787" stroke="#0000FF" stroke-width="3" stroke-linecap="round"/>
<path d="M1489.55 231.643C1474.49 236.915 1456.34 248.598 1448.78 263.209C1439.66 280.85 1481.32 261.122 1485.35 259C1487.67 257.775 1509.27 245.693 1507.44 248.741C1505.98 251.179 1496.65 260.411 1502.44 257.685C1524.88 247.127 1553.14 257.751 1567.15 230.722C1574.79 215.988 1545.18 241.654 1543.22 244.006C1534.71 254.182 1525.67 273.473 1546.9 273.204C1565.86 272.964 1582.62 254.368 1594.25 241.507C1594.81 240.882 1608.63 226.232 1605.56 224.277C1600.9 221.31 1587.39 233.112 1584.65 235.457C1581.08 238.505 1559.88 259.895 1572.68 263.735C1591.74 269.454 1609.75 251.884 1624.24 242.691C1637.89 234.028 1631.67 241.694 1627 250.451C1617.75 267.793 1638.39 249.205 1644.23 245.584C1648.34 243.029 1683.54 220.149 1677.37 237.43C1674.84 244.521 1661.04 261.081 1667.11 267.154" stroke="#0000FF" stroke-width="3" stroke-linecap="round"/>
<path d="M1714.46 271.889H1723.93" stroke="#0000FF" stroke-width="3" stroke-linecap="round"/>
<path d="M19.3686 37.5118C18.2753 41.703 7.82015 73.2822 10.688 72.2344C16.0263 70.2838 38.1723 48.6633 42.517 50.4012C52.3014 54.315 17.0012 111.848 17.0012 120.373" stroke="#0000FF" stroke-width="3" stroke-linecap="round"/>
<path d="M38.308 397.364C28.2683 413.428 19.8264 430.508 10.1617 446.817C7.33569 451.586 3.31293 457.314 2.00711 462.864C1.70811 464.134 10.9366 455.891 11.74 455.235C26.2685 443.37 32.6034 450.959 28.8382 466.02" stroke="#0000FF" stroke-width="3" stroke-linecap="round"/>
<path d="M47.7779 473.122C56.9517 464.254 69.0636 456.2 75.1351 444.713C80.0366 435.44 76.0405 431.074 66.4545 435.506C64.0996 436.595 36.8243 452.782 39.8864 456.55C44.4446 462.16 66.9287 447.126 71.4524 444.713" stroke="#0000FF" stroke-width="3" stroke-linecap="round"/>
<path d="M125.904 399.732C116.958 417.382 106.271 434.374 98.0206 452.341C93.9525 461.201 91.552 465.694 97.4945 473.122" stroke="#0000FF" stroke-width="3" stroke-linecap="round"/>
<path d="M142.476 470.755C148.071 451.872 142.032 446.433 126.167 461.417C125.478 462.068 112.059 476.923 116.171 476.805C129.246 476.432 144.114 457.412 151.946 448.922C163.078 436.854 172.665 423.893 181.144 409.859C188.634 397.462 189.825 398.37 183.117 411.569C177.008 423.591 145.308 461.982 154.313 475.49" stroke="#0000FF" stroke-width="3" stroke-linecap="round"/>
<path d="M279.788 435.243C279.347 444.936 277.141 452.375 272.817 461.022C268.471 469.715 268.038 469.338 272.949 461.154C281.506 446.892 296.989 438.432 312.932 435.243" stroke="#0000FF" stroke-width="3" stroke-linecap="round"/>
<path d="M329.504 456.55C324.072 463.729 318.493 470.779 312.932 477.857" stroke="#0000FF" stroke-width="3" stroke-linecap="round"/>
<path d="M353.179 456.55C354.488 455.14 364.393 445.689 362.386 443.135C360.152 440.292 340.109 461.391 338.58 463.127C319.46 484.831 363.905 457.992 368.831 459.838C378.116 463.32 322.603 523.213 317.93 527.311C316.289 528.75 297.329 546.601 293.598 542.042C289.728 537.311 301.31 523.969 303.463 520.471" stroke="#0000FF" stroke-width="3" stroke-linecap="round"/>
<path d="M417.1 423.406C409.315 436.382 400.367 449.247 393.952 462.995C389.382 472.788 400.92 464.226 404.342 462.469C424.036 452.356 422.281 470.893 419.468 484.96" stroke="#0000FF" stroke-width="3" stroke-linecap="round"/>
<path d="M478.654 418.671C466.581 439.25 459.816 463.516 445.509 482.592" stroke="#0000FF" stroke-width="3" stroke-linecap="round"/>
<path d="M438.407 447.08C454.225 444.943 469.971 442.233 485.756 439.978" stroke="#0000FF" stroke-width="3" stroke-linecap="round"/>
<path d="M504.696 454.183C514.39 454.024 523.524 452.943 533.105 451.815" stroke="#0000FF" stroke-width="3" stroke-linecap="round"/>
<path d="M587.557 444.713C585.295 446.627 555.471 469.031 562.567 474.438C572.736 482.186 601.968 456.795 608.864 451.815" stroke="#0000FF" stroke-width="3" stroke-linecap="round"/>
<path d="M637.273 416.304C629.386 433.83 617.764 449.639 613.598 468.388" stroke="#0000FF" stroke-width="3" stroke-linecap="round"/>
<path d="M644.375 463.653L632.538 475.49" stroke="#0000FF" stroke-width="3" stroke-linecap="round"/>
<path d="M656.212 432.876C668.067 430.858 679.728 430.508 691.724 430.508" stroke="#0000FF" stroke-width="3" stroke-linecap="round"/>
<path d="M708.296 449.448C708.185 449.539 670.893 480.531 680.413 482.066C698.434 484.973 727.64 449.66 737.495 437.742C743.227 430.81 760.965 406.652 745.65 428.667C738.564 438.853 717.087 464.661 722.501 475.49" stroke="#0000FF" stroke-width="3" stroke-linecap="round"/>
<path d="M779.32 430.508C774.155 432.529 723.434 451.451 728.814 459.97C734.589 469.114 747.02 476.123 755.645 482.592" stroke="#0000FF" stroke-width="3" stroke-linecap="round"/>
<path d="M888.222 404.466C877.875 421.312 869.135 438.693 859.945 456.156C856.234 463.206 852.694 469.58 845.608 473.122" stroke="#0000FF" stroke-width="3" stroke-linecap="round"/>
<path d="M831.404 456.55C834.851 455.653 908.554 430.111 909.793 442.083C910.425 448.196 905.832 454.642 902.427 459.181C902.37 459.257 892.451 469.403 893.484 470.229C897.089 473.114 942.596 438.788 900.06 435.243" stroke="#0000FF" stroke-width="3" stroke-linecap="round"/>
<path d="M994.758 449.448C1006.27 446.419 1016.87 442.517 1027.24 436.559C1033.41 433.021 1042.67 425.76 1029.74 431.561C1019.89 435.983 977.809 465.536 1012.91 459.575C1025.8 457.387 1036.07 450.554 1046.32 442.872C1047.38 442.072 1062.68 429.303 1059.99 436.822C1058.88 439.932 1047.42 463.298 1053.15 453.92C1062.28 438.982 1090.67 430.757 1106.82 428.272C1107.93 428.101 1119.55 425.405 1117.6 427.352C1108.48 436.476 1097.04 443.523 1087.35 452.078C1081.55 457.206 1084.34 459.037 1091.3 457.076C1102.43 453.937 1111.46 446.144 1121.94 441.556C1125.76 439.886 1118.5 448.486 1117.87 449.448C1110.93 459.963 1117.37 458.088 1127.33 458.918" stroke="#0000FF" stroke-width="3" stroke-linecap="round"/>
<path d="M1186.52 416.304C1175.01 424.554 1159.99 431.978 1159.16 447.87C1158.77 455.45 1163.47 462.471 1153.38 464.573C1150.73 465.124 1143.1 463.989 1147.85 460.101C1155.71 453.674 1172.77 455.918 1182.31 454.183C1197.64 451.396 1211.22 445.952 1223.61 436.295C1231.42 430.214 1236.27 421.914 1222.56 428.93C1214.24 433.186 1197.03 443.675 1198.88 455.235C1201.29 470.257 1233 458.362 1240.97 456.55" stroke="#0000FF" stroke-width="3" stroke-linecap="round"/>
<path d="M1283.59 458.918H1295.42" stroke="#0000FF" stroke-width="3" stroke-linecap="round"/>
</svg>
