<svg width="11" height="11" viewBox="0 0 11 11" fill="none" xmlns="http://www.w3.org/2000/svg">
<path d="M7.29396 2.00238C5.42056 2.00238 3.76215 1.8708 2.67378 3.56383C2.25725 4.21177 2 4.68842 2 5.46752C2 6.3701 2.32126 6.97632 2.7219 7.77761C3.40479 9.14339 5.98842 9.4206 7.17632 8.6439C7.6608 8.32713 7.97825 8.12195 8.35276 7.68136C8.61423 7.37375 8.83403 6.34204 8.83403 5.94879C8.83403 5.28704 8.92505 4.67139 8.49179 4.11997C7.99871 3.49241 7.36072 2.9341 6.57206 2.72963C4.88474 2.29218 4.30515 3.4833 3.97855 4.93812C3.83134 5.59388 3.4589 6.77184 3.92508 7.37121C4.24871 7.78731 5.23552 8.01286 5.73251 7.94873C6.36841 7.86668 6.62381 7.57687 6.9143 7.05036C7.14117 6.63915 7.5926 5.93525 7.27257 5.46752C6.91863 4.95022 5.36748 3.75193 4.64698 4.23226C4.35248 4.4286 4.39446 5.35874 4.5026 5.63864C4.62234 5.94856 4.99276 6.17354 5.31541 6.2322C5.93198 6.34431 5.85016 5.43495 5.85016 5.08251" stroke="#EE1515" stroke-width="3" stroke-linecap="round"/>
</svg>
