<svg width="34" height="23" viewBox="0 0 34 23" fill="none" xmlns="http://www.w3.org/2000/svg">
<path d="M7.87512 3.7619C4.25477 3.94292 1.68015 6.13684 1.03798 9.60454C0.554596 12.2148 1.16194 13.7688 2.65403 15.8892C3.46184 17.0371 4.92086 17.4362 6.25907 17.4362C7.02207 17.4362 8.83793 17.7244 9.36685 17.0632C10.2587 15.9484 8.94274 13.3934 8.86961 12.077C8.77043 10.2917 8.37236 8.56483 8.37236 6.75919C8.37236 5.64797 7.86517 4.40391 7.98561 3.3199C8.0179 3.02936 14.359 2.34909 15.0299 2.21491C18.5187 1.51716 21.9443 1.52429 25.5273 1.52429C26.5667 1.52429 26.5218 11.3914 26.5218 12.9609C26.5218 13.6035 26.8615 15.6441 26.4666 16.1378C26.0275 16.6866 25.0499 16.4298 24.4224 16.4417C22.5996 16.4761 20.7907 16.6903 18.9526 16.6903C15.84 16.6903 12.7659 17.1875 9.61548 17.1875" stroke="black" stroke-width="1.5" stroke-linecap="round"/>
<path d="M25.5273 2.27011C27.6573 2.27011 30.296 2.0835 31.3838 4.2591C32.3543 6.20011 32.986 8.15914 32.986 10.3504C32.986 13.2903 29.6042 15.4471 27.0191 15.4471" stroke="black" stroke-width="1.5" stroke-linecap="round"/>
<path d="M9.61554 21.4141C8.87908 21.4141 7.37793 21.6561 7.37793 20.5439C7.37793 19.5746 7.52931 19.0492 8.62104 18.9279C9.45839 18.8349 10.2974 18.3048 10.8587 19.287C11.1055 19.7191 11.9757 20.9169 10.8587 20.9169" stroke="black" stroke-width="1.5" stroke-linecap="round"/>
<path d="M14.5878 21.1655C13.8294 21.1655 12.1016 21.2169 12.1016 20.171C12.1016 18.9673 12.7684 18.0068 14.0905 17.9334C15.2332 17.8699 16.0379 17.8191 16.7701 18.7345C17.5293 19.6834 16.2057 20.6682 15.3337 20.6682" stroke="black" stroke-width="1.5" stroke-linecap="round"/>
<path d="M23.2899 20.9169C22.4179 20.9169 21.0522 20.6569 21.0522 19.5495C21.0522 18.7486 21.0493 17.4362 22.171 17.4362C23.0045 17.4362 23.6713 17.2914 24.2291 17.9887C24.5841 18.4324 24.3063 20.2623 24.0357 20.6683" stroke="black" stroke-width="1.5" stroke-linecap="round"/>
<path d="M27.0193 20.171C24.5438 20.171 24.3986 16.6902 26.8949 16.6902C28.1339 16.6902 28.4741 16.6984 29.3121 17.6295C29.7584 18.1253 29.6176 19.6177 29.0082 19.9223" stroke="black" stroke-width="1.5" stroke-linecap="round"/>
<path d="M4.47653 10.3757C4.44341 10.6407 4.02411 10.8176 4.3187 10.3757" stroke="black" stroke-width="1.5" stroke-linecap="round"/>
</svg>
