<svg width="34" height="22" viewBox="0 0 34 22" fill="none" xmlns="http://www.w3.org/2000/svg">
<path d="M8.00012 3.23761C4.37977 3.41863 1.80515 5.61255 1.16298 9.08025C0.679596 11.6905 1.28694 13.2445 2.77903 15.3649C3.58684 16.5128 5.04586 16.9119 6.38407 16.9119C7.14707 16.9119 8.96293 17.2001 9.49185 16.5389C10.3837 15.4241 9.06774 12.8691 8.99461 11.5527C8.89543 9.76743 8.49736 8.04054 8.49736 6.2349C8.49736 5.12367 7.99017 3.87962 8.11061 2.79561C8.1429 2.50507 14.484 1.8248 15.1549 1.69062C18.6437 0.992869 22.0693 1 25.6523 1C26.6917 1 26.6468 10.8671 26.6468 12.4367C26.6468 13.0792 26.9865 15.1198 26.5916 15.6135C26.1525 16.1623 25.1749 15.9055 24.5474 15.9174C22.7246 15.9518 20.9157 16.166 19.0776 16.166C15.965 16.166 12.8909 16.6632 9.74048 16.6632" stroke="black" stroke-width="1.5" stroke-linecap="round"/>
<path d="M25.6523 1.74582C27.7823 1.74582 30.421 1.55921 31.5088 3.73481C32.4793 5.67582 33.111 7.63485 33.111 9.82607C33.111 12.7661 29.7292 14.9228 27.1441 14.9228" stroke="black" stroke-width="1.5" stroke-linecap="round"/>
<path d="M9.74054 20.8898C9.00408 20.8898 7.50293 21.1318 7.50293 20.0197C7.50293 19.0503 7.65431 18.5249 8.74604 18.4036C9.58339 18.3106 10.4224 17.7805 10.9837 18.7627C11.2305 19.1948 12.1007 20.3926 10.9837 20.3926" stroke="black" stroke-width="1.5" stroke-linecap="round"/>
<path d="M14.7128 20.6412C13.9544 20.6412 12.2266 20.6926 12.2266 19.6467C12.2266 18.443 12.8934 17.4825 14.2155 17.4091C15.3582 17.3456 16.1629 17.2948 16.8951 18.2102C17.6543 19.1591 16.3307 20.1439 15.4587 20.1439" stroke="black" stroke-width="1.5" stroke-linecap="round"/>
<path d="M23.4149 20.3926C22.5429 20.3926 21.1772 20.1326 21.1772 19.0252C21.1772 18.2243 21.1743 16.9119 22.296 16.9119C23.1295 16.9119 23.7963 16.7671 24.3541 17.4644C24.7091 17.9081 24.4313 19.7381 24.1607 20.144" stroke="black" stroke-width="1.5" stroke-linecap="round"/>
<path d="M27.1443 19.6467C24.6688 19.6467 24.5236 16.166 27.0199 16.166C28.2589 16.166 28.5991 16.1741 29.4371 17.1052C29.8834 17.601 29.7426 19.0934 29.1332 19.3981" stroke="black" stroke-width="1.5" stroke-linecap="round"/>
<path d="M30.2622 7C30.2291 7.265 29.8098 7.44189 30.1043 7" stroke="black" stroke-width="1.5" stroke-linecap="round"/>
</svg>
