<svg width="12" height="26" viewBox="0 0 12 26" fill="none" xmlns="http://www.w3.org/2000/svg">
<path d="M1.69486 7.53057C2.00472 6.56226 2.34685 5.35011 3.08438 4.61259C3.89848 3.79849 5.4091 3.62155 6.51185 3.63993C8.18681 3.66784 9.84185 5.58618 10.3407 7.08284C10.3868 7.22114 10.6532 7.5975 10.6341 7.73128C10.5882 8.05243 7.46512 7.70905 7.05994 7.66953C6.23101 7.58865 5.44641 7.53057 4.61284 7.53057C3.58812 7.53057 2.53967 7.66953 1.55591 7.66953" stroke="#EE1515" stroke-width="1.5" stroke-linecap="round"/>
<path d="M1 8.08643C1 11.0758 1.13895 14.4266 1.13895 17.2572" stroke="#EE1515" stroke-width="1.5" stroke-linecap="round"/>
<path d="M1.13892 17.8136C1.22672 17.4624 3.05049 17.6746 3.26179 17.6746C4.88525 17.6746 6.50941 17.6607 8.13282 17.6746C8.81907 17.6806 9.48277 17.8136 10.1708 17.8136" stroke="#EE1515" stroke-width="1.5" stroke-linecap="round"/>
<path d="M10.3101 8.22559C10.507 10.5892 10.449 13.0666 10.449 15.4511C10.449 16.1785 10.8659 16.8411 10.8659 17.5353" stroke="#EE1515" stroke-width="1.5" stroke-linecap="round"/>
<path d="M1 18.0911C1 19.5438 2.39337 20.3617 3.43937 21.1171C4.30776 21.7443 5.68482 21.9602 6.69702 21.534C7.35314 21.2577 8.59974 21.139 9.02832 20.4532C9.30783 20.006 9.72179 18.8714 10.1708 18.6469" stroke="#EE1515" stroke-width="1.5" stroke-linecap="round"/>
<path d="M5.86304 2.38952C5.86304 1.92955 5.86304 1.48148 5.86304 1" stroke="#EE1515" stroke-width="1.5" stroke-linecap="round"/>
<path d="M5.30782 22.1208C5.32793 22.6235 5.30782 23.0239 5.30782 23.5104C5.30782 23.7731 5.20868 24.225 5.44677 24.3441" stroke="#EE1515" stroke-width="1.5" stroke-linecap="round"/>
</svg>
