<svg width="288" height="38" viewBox="0 0 288 38" fill="none" xmlns="http://www.w3.org/2000/svg">
<path d="M1.7207 27.2534C8.45704 25.2402 15.2855 23.872 22.0438 22.0168C24.1083 21.45 25.7336 21.0463 26.4076 19.0244" stroke="#EE1515" stroke-width="1.5" stroke-linecap="round"/>
<path d="M25.6596 11.5435C21.9337 16.2226 18.9679 21.3907 15.6851 26.3805C15.1204 27.2389 13.6542 30.9577 12.9421 30.2456" stroke="#EE1515" stroke-width="1.5" stroke-linecap="round"/>
<path d="M12.9421 13.7877C15.3162 18.8633 18.5888 22.9926 21.8361 27.5027C22.5742 28.5278 23.1141 29.7209 24.1635 30.2456" stroke="#EE1515" stroke-width="1.5" stroke-linecap="round"/>
<path d="M45.1099 21.2687C51.2939 21.2687 57.3635 20.8619 63.4796 19.9388C67.5265 19.3279 65.0253 19.1015 62.773 17.1958C60.9834 15.6814 64.3048 16.263 64.5186 18.401C64.9197 22.4119 61.8721 23.3481 60.8197 26.5053" stroke="#EE1515" stroke-width="1.5" stroke-linecap="round"/>
<path d="M92.5764 11.4733C91.9867 13.3528 89.2973 19.0592 92.6595 19.9932C97.3253 21.2892 101.126 13.8117 104.712 12.1382C106.288 11.4029 104.319 15.6357 103.673 17.2502C101.83 21.8573 99.7483 26.4082 97.0649 30.5911C95.3144 33.3198 90.9655 40.0153 96.3168 34.664" stroke="#EE1515" stroke-width="1.5" stroke-linecap="round"/>
<path d="M109.034 28.6793C110.182 26.6271 116.483 12.8763 109.949 20.4503C109.499 20.9715 105.955 24.5847 107.289 25.3544C108.919 26.2948 112.21 23.5148 113.523 22.6946" stroke="#EE1515" stroke-width="1.5" stroke-linecap="round"/>
<path d="M121.752 15.9618C121.637 16.3718 119.084 23.0901 121.128 22.1958C124.783 20.5969 127.603 16.77 130.396 14.05C132.652 11.8537 131.019 18.2471 130.729 19.2035C129.871 22.0345 129.978 23.141 132.225 24.9388" stroke="#EE1515" stroke-width="1.5" stroke-linecap="round"/>
<path d="M167.385 22.6946C166.686 19.7235 166.043 13.9766 161.4 17.0424C160.389 17.71 154.434 25.3815 157.411 24.7726C159.125 24.4219 167.645 18.3223 166.471 20.6166C165.79 21.948 162.513 26.435 165.141 26.435" stroke="#EE1515" stroke-width="1.5" stroke-linecap="round"/>
<path d="M176.362 18.9542C175.927 19.5632 172.274 25.8055 173.869 24.3986C175.881 22.6227 177.674 20.172 180.685 21.1984C182.495 21.8156 183.681 23.484 185.755 23.318C188.125 23.1284 192.09 21.1821 193.111 18.9126C193.383 18.3084 194.281 14.0506 192.654 14.6319C189.604 15.7213 186.887 19.8009 185.797 22.653C182.861 30.3302 190.556 30.935 195.813 27.9312" stroke="#EE1515" stroke-width="1.5" stroke-linecap="round"/>
<path d="M223.492 1C223.324 8.97637 221.483 13.9665 218.421 21.0321C216.675 25.0615 223.454 18.3976 225.237 17.5826C232.432 14.2938 223.453 28.1505 229.102 25.9778C231.636 25.0035 234.268 22.2056 235.752 20.0762C236.932 18.383 238.628 12.9852 235.461 16.8761C233.775 18.9482 230.733 22.9916 231.804 25.9363C232.705 28.4134 241.998 21.145 242.942 20.4503C243.56 19.9953 249.196 15.4936 247.846 19.1203C247.029 21.3167 243.593 27.4405 244.937 25.5207C247.134 22.3826 250.629 19.8061 254.579 19.7022C256.412 19.654 257.409 21.6434 259.109 21.9049C261.635 22.2935 264.497 20.1453 265.301 17.832C266.201 15.247 266.352 13.4978 263.722 16.128C261.095 18.7549 258.086 23.1235 259.857 27.0584C261.586 30.9012 267.649 27.3882 269.873 26.435" stroke="#EE1515" stroke-width="1.5" stroke-linecap="round"/>
<path d="M286.331 27.9312C286.405 29.187 286.833 30.4433 287.079 31.6716" stroke="#EE1515" stroke-width="1.5" stroke-linecap="round"/>
</svg>
